<?xml version="1.0" encoding="utf-8"?>
<!-- Generator: Adobe Illustrator 15.0.0, SVG Export Plug-In . SVG Version: 6.00 Build 0)  -->
<!DOCTYPE svg PUBLIC "-//W3C//DTD SVG 1.1//EN" "http://www.w3.org/Graphics/SVG/1.1/DTD/svg11.dtd">
<svg version="1.1" id="Layer_1" xmlns="http://www.w3.org/2000/svg" xmlns:xlink="http://www.w3.org/1999/xlink" x="0px" y="0px"
	 width="450px" height="450px" viewBox="0 0 450 450" enable-background="new 0 0 450 450" xml:space="preserve">
<g opacity="0.03">
	<path fill="#FFFFFF" d="M99.957,332.569l15.187,17.93c-10.597-7.811-21.541-17.101-32.865-29.153
		C49.252,286.266,29,238.98,29,186.9c0-58.714,25.764-111.443,66.714-147.325L73.629,248.637
		c-0.635,6.164-0.724,12.064-0.184,17.666C74.731,290.871,83.849,313.787,99.957,332.569z"/>
	<path fill="#FFFFFF" d="M330.093,314.613l-50.423,59.186c-7.799,9.234-44.133,54.665-54.386,76.201l-0.093-0.091
		c-9.191-19.321-46.034-66.908-53.845-76.11l-50.423-59.186c-12.146-14.235-19.14-31.74-19.963-50.32
		c-0.463-4.146-0.376-8.464,0.087-12.809l22.354-211.368c0.735-7.816,7.102-13.707,14.829-13.707c0.089,0,0.089,0,0.176,0h0.108
		c7.532,0,13.703,6.159,13.617,13.707v193.541c0,1.005,0.086,2.109,0.457,2.938c1.298,5.874,6.533,10.307,12.792,10.307
		c7.371,0,13.247-5.977,13.247-13.233V17.307c0-4.608,1.853-9.015,5.08-12.14C186.997,1.851,191.417,0,195.917,0
		c9.103,0.086,16.381,7.371,16.381,16.377v217.266c0,7.245,5.888,13.148,13.15,13.148c0.108,0,0.108,0,0.108,0
		c7.262,0,13.247-6,13.247-13.245V18.13c0-10.032,7.907-18.043,17.851-18.043c0,0,0.088,0,0.176,0h0.278
		c4.418,0,8.651,1.764,11.701,4.892c3.214,3.119,4.957,7.439,4.957,12.047l-0.088,208.609l0.088,7.923
		c0,7.257,5.892,13.233,13.245,13.233c0,0,0.103,0,0.205,0c7.081,0,12.967-5.877,12.967-13.134l0.114-1.582l-0.114-191.214
		c0-3.873,1.482-7.458,4.233-10.212c2.672-2.763,6.439-4.333,10.321-4.333c6.63,0,12.141,5.065,12.779,11.689l22.553,213.479
		c0.07,0.92,0.173,1.925,0.173,3.026C351.523,276.346,344.363,297.967,330.093,314.613z"/>
	<path fill="#FFFFFF" d="M421.569,186.9c0,52.08-20.247,99.289-53.271,134.445c-10.963,11.675-21.548,20.789-31.77,28.333
		l14.64-17.209c18.683-21.809,28.151-49.77,26.687-78.773c-0.091-2.109-0.193-3.955-0.366-5.238L355.59,40.116
		C396.069,76.1,421.569,128.568,421.569,186.9z"/>
</g>
</svg>
